<?xml version="1.0" encoding="UTF-8" standalone="yes"?>
<svg xmlns="http://www.w3.org/2000/svg" xmlns:xlink="http://www.w3.org/1999/xlink" width="50px" height="50px" viewBox="0 0 50 50" version="1.1" fill="#000000">
  <g id="surface191317">
    <path style=" stroke:none;fill-rule:nonzero;fill:#000000;fill-opacity:1;" d="M 21 3 C 12.164062 3 4.902344 9.777344 4.09375 18.40625 C 4.949219 17.582031 5.597656 17.078125 5.65625 17.03125 C 9.21875 14.335938 14.765625 11.125 21 11.125 C 27.457031 11.125 33.175781 14.539062 36.84375 17.40625 C 36.894531 17.449219 37.328125 17.828125 37.90625 18.34375 C 37.070312 9.746094 29.8125 3 21 3 Z M 12.9375 14.71875 C 10.507812 15.789062 8.355469 17.144531 6.6875 18.40625 C 6.671875 18.417969 5.390625 19.449219 4.0625 20.96875 C 4.5625 29.898438 11.949219 37 21 37 C 24.714844 37 28.140625 35.78125 30.9375 33.75 L 44.09375 46.90625 L 46.90625 44.0625 L 33.875 31.03125 C 36.269531 28.234375 37.796875 24.675781 37.96875 20.75 C 36.875 19.707031 35.765625 18.792969 35.75 18.78125 C 33.980469 17.398438 31.683594 15.871094 29.0625 14.71875 C 30.003906 16.199219 30.5625 17.929688 30.5625 19.8125 C 30.5625 25.097656 26.285156 29.40625 21 29.40625 C 15.714844 29.40625 11.4375 25.097656 11.4375 19.8125 C 11.4375 17.925781 11.996094 16.199219 12.9375 14.71875 Z M 21 15.46875 C 18.597656 15.46875 16.65625 17.410156 16.65625 19.8125 C 16.65625 22.214844 18.597656 24.1875 21 24.1875 C 23.402344 24.1875 25.34375 22.214844 25.34375 19.8125 C 25.34375 17.410156 23.402344 15.46875 21 15.46875 Z M 21 15.46875 "/>
  </g>
</svg>
